<?xml version="1.0" encoding="utf-8"?>
<!-- Generator: Adobe Illustrator 16.0.3, SVG Export Plug-In . SVG Version: 6.00 Build 0)  -->
<!DOCTYPE svg PUBLIC "-//W3C//DTD SVG 1.1//EN" "http://www.w3.org/Graphics/SVG/1.1/DTD/svg11.dtd">
<svg version="1.1" xmlns="http://www.w3.org/2000/svg" xmlns:xlink="http://www.w3.org/1999/xlink" x="0px" y="0px" width="24px"
	 height="24px" viewBox="0 0 24 24" enable-background="new 0 0 24 24" xml:space="preserve">
<g id="Outline_Icons">
	<g>
		<path d="M23.195,18.768l-0.763-0.44c0.09-0.562,0.09-1.092,0-1.654l0.765-0.441c0.115-0.066,0.199-0.176,0.233-0.304
			s0.017-0.265-0.05-0.379l-1.5-2.598c-0.138-0.239-0.443-0.321-0.683-0.183l-0.775,0.447C19.996,12.875,19.52,12.603,19,12.4v-0.9
			c0-0.276-0.224-0.5-0.5-0.5h-3c-0.276,0-0.5,0.224-0.5,0.5v0.9c-0.52,0.202-0.996,0.475-1.422,0.814l-0.775-0.447
			c-0.239-0.138-0.545-0.056-0.683,0.183l-1.5,2.598c-0.066,0.115-0.084,0.251-0.05,0.379s0.118,0.237,0.233,0.304l0.765,0.441
			c-0.09,0.562-0.09,1.093,0,1.654l-0.763,0.44c-0.239,0.139-0.321,0.444-0.183,0.683l1.5,2.598c0.138,0.24,0.443,0.322,0.683,0.183
			l0.774-0.446c0.427,0.339,0.903,0.612,1.422,0.813v0.9c0,0.276,0.224,0.5,0.5,0.5h3c0.276,0,0.5-0.224,0.5-0.5v-0.9
			c0.519-0.202,0.995-0.474,1.422-0.813l0.774,0.446c0.24,0.139,0.544,0.055,0.683-0.183l1.5-2.598
			C23.516,19.212,23.435,18.907,23.195,18.768z M21.387,18.474c-0.047,0.212,0.049,0.433,0.238,0.542l0.637,0.369l-1,1.732
			l-0.646-0.373c-0.188-0.108-0.425-0.084-0.587,0.064c-0.478,0.436-1.042,0.76-1.68,0.962C18.141,21.835,18,22.028,18,22.246V23h-2
			v-0.754c0-0.218-0.141-0.411-0.349-0.477c-0.638-0.202-1.203-0.526-1.68-0.962c-0.161-0.146-0.399-0.173-0.587-0.064l-0.646,0.373
			l-1-1.732l0.637-0.369c0.189-0.109,0.286-0.329,0.238-0.542c-0.15-0.673-0.15-1.274,0-1.948c0.047-0.212-0.049-0.432-0.238-0.542
			l-0.639-0.369l1-1.731l0.648,0.373c0.188,0.109,0.426,0.083,0.587-0.064c0.476-0.435,1.041-0.759,1.681-0.962
			C15.859,13.164,16,12.972,16,12.754V12h2v0.754c0,0.218,0.141,0.41,0.348,0.477c0.64,0.204,1.205,0.527,1.681,0.962
			c0.161,0.147,0.399,0.174,0.587,0.064l0.648-0.373l1,1.731l-0.639,0.369c-0.189,0.11-0.286,0.329-0.238,0.542
			C21.537,17.2,21.537,17.801,21.387,18.474z"/>
		<path d="M17,15c-1.378,0-2.5,1.122-2.5,2.5S15.622,20,17,20s2.5-1.122,2.5-2.5S18.378,15,17,15z M17,19
			c-0.827,0-1.5-0.673-1.5-1.5S16.173,16,17,16s1.5,0.673,1.5,1.5S17.827,19,17,19z"/>
		<path d="M9,21H1V1h10v4.5C11,5.776,11.224,6,11.5,6H16v3c0,0.276,0.224,0.5,0.5,0.5S17,9.276,17,9V5.5
			c0-0.067-0.014-0.132-0.039-0.192c-0.025-0.061-0.062-0.116-0.108-0.162l-4.999-4.999c-0.046-0.045-0.101-0.083-0.162-0.107
			C11.632,0.014,11.567,0,11.5,0h-11C0.224,0,0,0.224,0,0.5v21C0,21.776,0.224,22,0.5,22H9c0.276,0,0.5-0.224,0.5-0.5S9.276,21,9,21
			z M12,1.707L15.293,5H12V1.707z"/>
	</g>
</g>
<g id="Invisible_Shape">
	<rect fill="none" width="24" height="24"/>
</g>
</svg>
