<?xml version="1.0" encoding="utf-8"?>
<!-- Generator: Adobe Illustrator 16.0.3, SVG Export Plug-In . SVG Version: 6.00 Build 0)  -->
<!DOCTYPE svg PUBLIC "-//W3C//DTD SVG 1.1//EN" "http://www.w3.org/Graphics/SVG/1.1/DTD/svg11.dtd">
<svg version="1.1" xmlns="http://www.w3.org/2000/svg" xmlns:xlink="http://www.w3.org/1999/xlink" x="0px" y="0px" width="24px"
	 height="24px" viewBox="0 0 24 24" enable-background="new 0 0 24 24" xml:space="preserve">
<g id="Outline_Icons">
	<g>
		<path d="M23.195,18.768l-0.762-0.44c0.09-0.562,0.09-1.093,0-1.655l0.765-0.441c0.115-0.067,0.199-0.176,0.233-0.304
			c0.034-0.127,0.017-0.265-0.05-0.379l-1.5-2.598c-0.139-0.24-0.444-0.322-0.683-0.183l-0.775,0.447
			C19.996,12.876,19.52,12.603,19,12.4V11.5c0-0.276-0.224-0.5-0.5-0.5h-3c-0.276,0-0.5,0.224-0.5,0.5V12.4
			c-0.52,0.202-0.996,0.476-1.422,0.814l-0.775-0.447c-0.241-0.139-0.545-0.057-0.683,0.183l-1.5,2.598
			c-0.066,0.115-0.084,0.252-0.05,0.379c0.034,0.128,0.118,0.237,0.233,0.304l0.765,0.441c-0.09,0.562-0.09,1.093,0,1.655
			l-0.762,0.44c-0.115,0.066-0.199,0.176-0.233,0.304s-0.017,0.265,0.05,0.379l1.5,2.598c0.138,0.239,0.443,0.322,0.683,0.183
			l0.774-0.445c0.427,0.339,0.903,0.612,1.422,0.813v0.9c0,0.276,0.224,0.5,0.5,0.5h3c0.276,0,0.5-0.224,0.5-0.5v-0.9
			c0.519-0.202,0.995-0.474,1.422-0.813l0.774,0.445c0.24,0.139,0.544,0.056,0.683-0.183l1.5-2.598
			c0.066-0.115,0.084-0.251,0.05-0.379S23.31,18.834,23.195,18.768z M21.387,18.475c-0.047,0.213,0.049,0.432,0.238,0.542
			l0.637,0.368l-1,1.731l-0.646-0.372c-0.188-0.108-0.425-0.083-0.587,0.064c-0.478,0.437-1.042,0.76-1.68,0.961
			C18.141,21.834,18,22.027,18,22.246V23h-2v-0.754c0-0.218-0.141-0.411-0.349-0.477c-0.637-0.201-1.202-0.524-1.68-0.961
			c-0.161-0.146-0.397-0.172-0.587-0.064l-0.646,0.372l-1-1.731l0.637-0.368c0.189-0.109,0.286-0.329,0.238-0.542
			c-0.15-0.673-0.15-1.274,0-1.949c0.047-0.213-0.049-0.432-0.238-0.542l-0.639-0.369l1-1.732l0.648,0.374
			c0.188,0.109,0.426,0.083,0.588-0.064c0.475-0.435,1.04-0.759,1.68-0.962C15.859,13.164,16,12.972,16,12.754V12h2v0.754
			c0,0.218,0.141,0.41,0.348,0.477c0.641,0.204,1.206,0.528,1.68,0.962c0.162,0.147,0.399,0.174,0.588,0.064l0.648-0.374l1,1.732
			l-0.639,0.369c-0.189,0.109-0.286,0.328-0.238,0.542C21.537,17.2,21.537,17.801,21.387,18.475z"/>
		<path d="M17,15c-1.378,0-2.5,1.122-2.5,2.5S15.622,20,17,20s2.5-1.122,2.5-2.5S18.378,15,17,15z M17,19
			c-0.827,0-1.5-0.672-1.5-1.5c0-0.827,0.673-1.5,1.5-1.5s1.5,0.673,1.5,1.5C18.5,18.327,17.827,19,17,19z"/>
		<path d="M9.5,17H3.722C3.894,16.704,4,16.365,4,16V5h16v4c0,0.276,0.224,0.5,0.5,0.5S21,9.276,21,9V4.5C21,4.223,20.776,4,20.5,4
			H19V2.5C19,2.223,18.776,2,18.5,2H6V0.5C6,0.223,5.776,0,5.5,0h-5C0.224,0,0,0.223,0,0.5V16c0,1.103,0.897,2,2,2h7.5
			c0.276,0,0.5-0.224,0.5-0.5S9.776,17,9.5,17z M1,16V1h4v1.5C5,2.776,5.224,3,5.5,3H18v1H3.5C3.224,4,3,4.223,3,4.5V16
			c0,0.551-0.449,1-1,1S1,16.551,1,16z"/>
	</g>
</g>
<g id="Invisible_Shape">
	<rect fill="none" width="24" height="24"/>
</g>
</svg>
